<svg viewBox="0 0 496 356" xmlns="http://www.w3.org/2000/svg"><g fill="none"><path d="M355.7 23.241c-28.9-30.1-76.8-31-106.9-2.2l-.1.1-.1-.1c-30.1-28.9-78-27.9-106.9 2.2-28.9 30.1-27.9 78 2.2 106.9l7 6.8 17.9-18.6-7-6.8c-19.8-19-20.4-50.6-1.4-70.4 19-19.8 50.6-20.4 70.4-1.4l18 17.3 18-17.3c19.8-19 51.4-18.4 70.4 1.4 19 19.8 18.4 51.4-1.4 70.4l-87 83.5-48.6-46.4 9-9.3 20.2 19.7 12.5-12.6-54.6-53.3-12.5 12.6 18.7 18.3-39.7 40.7-18.7-18.3-12.5 12.6 54.6 53.3 12.5-12.6-20.2-19.7 12.6-13 66.4 63.8 104.9-100.7c30.2-28.8 31.2-76.8 2.3-106.9z" fill="#EF4566"/><path d="M219.5 86.941l-12.5 12.5 25.7 24.9 12.5-12.6-25.7-24.8zM118 189.541l25.7 24.8 12.5-12.5-25.6-24.9-12.6 12.6z" fill="#EF4566"/><g><path d="M36.5 264.241c3.5 1.5 6.1 3.7 8 6.6 1.9 2.9 2.8 6.2 2.8 10.1 0 3.8-.9 7.2-2.8 10.1-1.9 2.9-4.5 5.1-8 6.6s-7.5 2.3-12.2 2.3H17v12.4H0v-50.4h24.3c4.7 0 8.8.8 12.2 2.3zm-8 21.1c1.2-1 1.7-2.5 1.7-4.4 0-1.9-.6-3.3-1.7-4.4-1.2-1-2.9-1.5-5.2-1.5h-6.2v11.8h6.2c2.3 0 4-.5 5.2-1.5zM62.7 275.141H48v-13.2h46.5v13.2H79.7v37.2h-17v-37.2z" fill="#EF4566"/><path d="M109.8 310.141c-4.3-2.2-7.6-5.4-10-9.4-2.4-4-3.6-8.6-3.6-13.6 0-5.1 1.2-9.6 3.6-13.6 2.4-4 5.8-7.1 10-9.4 4.3-2.2 9.1-3.3 14.4-3.3 4.9 0 9.3.9 13.1 2.6 3.8 1.7 7 4.2 9.5 7.5l-10.7 9.6c-3.1-3.9-6.8-5.9-11-5.9-3.6 0-6.4 1.1-8.6 3.4-2.2 2.3-3.2 5.3-3.2 9.2 0 3.8 1.1 6.9 3.2 9.2 2.2 2.3 5 3.4 8.6 3.4 4.2 0 7.9-2 11-5.9l10.7 9.6c-2.5 3.3-5.7 5.8-9.5 7.5-3.8 1.7-8.2 2.6-13.1 2.6-5.3-.1-10.1-1.3-14.4-3.5zM162.5 310.141c-4.3-2.3-7.7-5.4-10.2-9.4-2.4-4-3.7-8.5-3.7-13.6s1.2-9.6 3.7-13.6c2.4-4 5.8-7.1 10.2-9.4 4.3-2.3 9.2-3.4 14.6-3.4s10.3 1.1 14.6 3.4c4.3 2.3 7.7 5.4 10.2 9.4 2.4 4 3.7 8.5 3.7 13.6s-1.2 9.6-3.7 13.6c-2.4 4-5.8 7.1-10.2 9.4-4.3 2.3-9.2 3.4-14.6 3.4s-10.3-1.2-14.6-3.4zm20.3-11.9c1.7-1 3.1-2.5 4.1-4.4 1-1.9 1.5-4.1 1.5-6.7 0-2.5-.5-4.8-1.5-6.7-1-1.9-2.4-3.4-4.1-4.4-1.7-1-3.6-1.5-5.7-1.5s-4 .5-5.7 1.5c-1.7 1-3.1 2.5-4.1 4.4-1 1.9-1.5 4.1-1.5 6.7 0 2.5.5 4.8 1.5 6.7 1 1.9 2.4 3.4 4.1 4.4 1.7 1 3.6 1.5 5.7 1.5s4-.5 5.7-1.5zM256.7 312.341l-.1-23-10.9 18.4h-7.5l-10.9-17.6v22.2h-15.5v-50.4h14l16.4 26.9 16-26.9h14l.1 50.4h-15.6zM316.8 264.241c3.5 1.5 6.1 3.7 8 6.6 1.9 2.9 2.8 6.2 2.8 10.1 0 3.8-.9 7.2-2.8 10.1-1.9 2.9-4.5 5.1-8 6.6s-7.5 2.3-12.2 2.3h-7.3v12.4h-17v-50.4h24.3c4.7 0 8.8.8 12.2 2.3zm-8 21.1c1.2-1 1.7-2.5 1.7-4.4 0-1.9-.6-3.3-1.7-4.4-1.2-1-2.9-1.5-5.2-1.5h-6.2v11.8h6.2c2.3 0 4-.5 5.2-1.5zM365 303.541h-19.2l-3.4 8.8h-17.3l22-50.4h16.7l22 50.4h-17.6l-3.2-8.8zm-4.7-12.2l-4.9-12.7-4.9 12.7h9.8zM438.4 261.941v50.4h-14l-19.2-22.9v22.9h-16.6v-50.4h14l19.2 22.9v-22.9h16.6zM476.5 294.041v18.3h-17v-18.5l-19-31.9h17.9l10.3 17.4 10.4-17.4h16.4l-19 32.1z" fill="#000"/></g><g><path d="M88.5 338.541c.9.5 1.7 1.3 2.2 2.3.5 1 .8 2.1.8 3.3 0 1.2-.3 2.3-.8 3.3s-1.3 1.7-2.2 2.3c-.9.5-2 .8-3.2.8-1.1 0-2.1-.3-3-.8-.9-.5-1.6-1.3-2.1-2.2v3H79v-17.8h1.2v8.1c.5-.9 1.2-1.7 2.1-2.2.9-.5 1.9-.8 3-.8 1.2-.1 2.3.1 3.2.7zm-.6 10.1c.8-.4 1.4-1.1 1.8-1.9.4-.8.7-1.7.7-2.7 0-1-.2-1.9-.7-2.7-.4-.8-1-1.4-1.8-1.9-.8-.4-1.6-.7-2.6-.7s-1.8.2-2.6.7c-.8.4-1.4 1.1-1.8 1.9-.4.8-.7 1.7-.7 2.7 0 1 .2 1.9.7 2.7.4.8 1 1.4 1.8 1.9.8.4 1.6.7 2.6.7.9 0 1.8-.2 2.6-.7zM105.8 344.341H95c0 1 .3 1.8.7 2.6.5.8 1.1 1.3 1.9 1.8.8.4 1.7.6 2.7.6.8 0 1.6-.1 2.3-.4.7-.3 1.3-.7 1.7-1.3l.7.8c-.5.7-1.2 1.2-2.1 1.5-.8.4-1.7.5-2.7.5-1.2 0-2.4-.3-3.3-.8-.9-.5-1.7-1.3-2.3-2.3-.6-1-.8-2.1-.8-3.3 0-1.2.3-2.3.8-3.3s1.2-1.7 2.1-2.3c.9-.6 1.9-.8 3.1-.8 1.2 0 2.2.3 3.1.8.9.5 1.6 1.3 2.1 2.2.5 1 .8 2 .8 3.3v.4zm-8.3-5c-.7.4-1.3.9-1.7 1.7-.4.8-.7 1.5-.7 2.4h9.6c0-.9-.3-1.7-.7-2.4-.4-.7-1-1.3-1.7-1.7-.7-.4-1.5-.6-2.4-.6-.9 0-1.7.2-2.4.6zM109.9 349.941c-.9-.3-1.6-.7-2.1-1.2l.6-1c.5.4 1.2.8 2 1.1.8.3 1.7.4 2.5.4 1.3 0 2.2-.2 2.8-.6.6-.4.9-1 .9-1.7 0-.5-.2-.9-.5-1.2-.3-.3-.7-.5-1.2-.7-.5-.1-1.1-.3-2-.5-1-.2-1.8-.4-2.4-.6-.6-.2-1.1-.5-1.6-1-.4-.5-.6-1.1-.6-1.9 0-1 .4-1.8 1.2-2.5.8-.6 2-1 3.5-1 .8 0 1.6.1 2.4.3.8.2 1.4.5 1.9.9l-.6 1c-.5-.4-1.1-.6-1.8-.8-.7-.2-1.3-.3-2-.3-1.2 0-2 .2-2.6.6-.6.4-.9 1-.9 1.7 0 .6.2 1 .5 1.3.3.3.7.5 1.2.7.5.2 1.2.3 2.1.5 1 .2 1.8.4 2.4.6.6.2 1.1.5 1.5 1 .4.4.6 1.1.6 1.8 0 1-.4 1.9-1.3 2.5-.9.6-2.1.9-3.6.9-1.1.2-2 0-2.9-.3zM127.3 349.541c-.3.3-.7.5-1.1.7-.5.2-.9.2-1.4.2-1.1 0-1.9-.3-2.5-.9-.6-.6-.9-1.4-.9-2.5v-8.2h-2.3v-1h2.3v-2.7h1.2v2.7h4v1h-4v8.1c0 .8.2 1.4.6 1.9.4.4 1 .6 1.7.6.8 0 1.4-.2 1.9-.7l.5.8zM146.2 338.542c.9.5 1.7 1.3 2.2 2.3.5 1 .8 2.1.8 3.3 0 1.2-.3 2.3-.8 3.3s-1.3 1.7-2.2 2.3c-.9.5-2 .8-3.2.8-1.1 0-2.1-.3-3-.8-.9-.5-1.6-1.2-2.1-2.2v7.5h-1.2v-17.2h1.2v3c.5-1 1.2-1.7 2.1-2.2.9-.5 1.9-.8 3-.8 1.2-.1 2.3.1 3.2.7zm-.6 10.1c.8-.4 1.4-1.1 1.8-1.9.4-.8.7-1.7.7-2.7 0-1-.2-1.9-.7-2.7-.4-.8-1-1.4-1.8-1.9-.8-.4-1.6-.7-2.6-.7s-1.8.2-2.6.7c-.8.4-1.4 1.1-1.8 1.9-.4.8-.7 1.7-.7 2.7 0 1 .2 1.9.7 2.7.4.8 1 1.4 1.8 1.9.8.4 1.6.7 2.6.7.9 0 1.8-.2 2.6-.7zM163.5 344.341h-10.8c0 1 .3 1.8.7 2.6.5.8 1.1 1.3 1.9 1.8.8.4 1.7.6 2.7.6.8 0 1.6-.1 2.3-.4.7-.3 1.3-.7 1.7-1.3l.7.8c-.5.7-1.2 1.2-2.1 1.5-.8.4-1.7.5-2.7.5-1.2 0-2.4-.3-3.3-.8-.9-.5-1.7-1.3-2.3-2.3-.6-1-.8-2.1-.8-3.3 0-1.2.3-2.3.8-3.3s1.2-1.7 2.1-2.3c.9-.6 1.9-.8 3.1-.8 1.2 0 2.2.3 3.1.8.9.5 1.6 1.3 2.1 2.2.5 1 .8 2 .8 3.3v.4zm-8.3-5c-.7.4-1.3.9-1.7 1.7-.4.8-.7 1.5-.7 2.4h9.6c0-.9-.3-1.7-.7-2.4-.4-.7-1-1.3-1.7-1.7-.7-.4-1.5-.6-2.4-.6-.9 0-1.7.2-2.4.6zM170.2 338.441c.8-.5 1.8-.7 3-.7v1.2h-.3c-1.4 0-2.5.4-3.3 1.3-.8.9-1.2 2.1-1.2 3.6v6.5h-1.2v-12.5h1.2v2.7c.4-.9 1-1.6 1.8-2.1zM176.9 349.941c-.9-.3-1.6-.7-2.1-1.2l.6-1c.5.4 1.2.8 2 1.1.8.3 1.7.4 2.5.4 1.3 0 2.2-.2 2.8-.6.6-.4.9-1 .9-1.7 0-.5-.2-.9-.5-1.2-.3-.3-.7-.5-1.2-.7-.5-.1-1.1-.3-2-.5-1-.2-1.8-.4-2.4-.6-.6-.2-1.1-.5-1.6-1-.4-.5-.6-1.1-.6-1.9 0-1 .4-1.8 1.2-2.5.8-.6 2-1 3.5-1 .8 0 1.6.1 2.4.3.8.2 1.4.5 1.9.9l-.6 1c-.5-.4-1.1-.6-1.8-.8-.7-.2-1.3-.3-2-.3-1.2 0-2 .2-2.6.6-.6.4-.9 1-.9 1.7 0 .6.2 1 .5 1.3.3.3.7.5 1.2.7.5.2 1.2.3 2.1.5 1 .2 1.8.4 2.4.6.6.2 1.1.5 1.5 1 .4.4.6 1.1.6 1.8 0 1-.4 1.9-1.3 2.5-.9.6-2.1.9-3.6.9-1 .2-1.9 0-2.9-.3zM189.8 349.641c-1-.5-1.7-1.3-2.2-2.3-.5-1-.8-2.1-.8-3.3 0-1.2.3-2.3.8-3.3s1.3-1.7 2.2-2.3c.9-.6 2-.8 3.2-.8 1.2 0 2.3.3 3.2.8 1 .5 1.7 1.3 2.2 2.3.5 1 .8 2.1.8 3.3 0 1.2-.3 2.3-.8 3.3s-1.3 1.7-2.2 2.3c-1 .5-2 .8-3.2.8-1.2 0-2.2-.3-3.2-.8zm5.8-1c.8-.4 1.4-1.1 1.8-1.9.4-.8.7-1.7.7-2.7 0-1-.2-1.9-.7-2.7-.5-.8-1-1.4-1.8-1.9-.8-.4-1.6-.7-2.6-.7s-1.8.2-2.6.7c-.8.4-1.4 1.1-1.8 1.9-.4.8-.7 1.7-.7 2.7 0 1 .2 1.9.7 2.7.4.8 1 1.4 1.8 1.9.8.4 1.6.7 2.6.7s1.8-.2 2.6-.7zM212.8 339.041c.9.9 1.4 2.2 1.4 3.9v7.3H213v-7.2c0-1.4-.4-2.5-1.1-3.2-.7-.7-1.7-1.1-3-1.1-1.5 0-2.6.4-3.5 1.3-.8.9-1.3 2.1-1.3 3.6v6.7h-1.2v-12.5h1.2v2.7c.4-.9 1.1-1.6 1.9-2.1.8-.5 1.9-.7 3-.7 1.7 0 2.9.4 3.8 1.3zM227 338.941c.8.8 1.2 2 1.2 3.5v7.9H227v-2.2c-.4.7-1 1.3-1.8 1.7-.8.4-1.7.6-2.8.6-1.4 0-2.5-.3-3.3-1-.8-.7-1.2-1.5-1.2-2.6 0-1 .4-1.9 1.1-2.5.7-.6 1.9-1 3.6-1h4.3v-1c0-1.2-.3-2.1-.9-2.7-.6-.6-1.6-.9-2.8-.9-.8 0-1.6.1-2.4.4-.8.3-1.4.7-1.9 1.2l-.6-.9c.6-.6 1.4-1 2.3-1.3.9-.3 1.8-.5 2.8-.5 1.5.1 2.7.5 3.6 1.3zm-1.6 9.8c.7-.5 1.3-1.2 1.6-2.1v-2.3h-4.3c-1.2 0-2.1.2-2.7.7-.6.4-.8 1.1-.8 1.8 0 .8.3 1.5.9 1.9.6.5 1.5.7 2.6.7 1 0 1.9-.2 2.7-.7zM233.1 332.541h1.2v17.8h-1.2v-17.8zM251.8 349.541c-.3.3-.7.5-1.1.7-.5.2-.9.2-1.4.2-1.1 0-1.9-.3-2.5-.9-.6-.6-.9-1.4-.9-2.5v-8.2h-2.4v-1h2.3v-2.7h1.2v2.7h4v1h-4v8.1c0 .8.2 1.4.6 1.9.4.4 1 .6 1.7.6.8 0 1.4-.2 1.9-.7l.6.8zM258.1 338.441c.8-.5 1.8-.7 3-.7v1.2h-.3c-1.4 0-2.5.4-3.3 1.3-.8.9-1.2 2.1-1.2 3.6v6.5h-1.2v-12.5h1.2v2.7c.4-.9 1-1.6 1.8-2.1zM272.2 338.941c.8.8 1.2 2 1.2 3.5v7.9h-1.2v-2.2c-.4.7-1 1.3-1.8 1.7-.8.4-1.7.6-2.8.6-1.4 0-2.5-.3-3.3-1-.8-.7-1.2-1.5-1.2-2.6 0-1 .4-1.9 1.1-2.5.7-.6 1.9-1 3.6-1h4.3v-1c0-1.2-.3-2.1-.9-2.7-.6-.6-1.6-.9-2.8-.9-.8 0-1.6.1-2.4.4-.8.3-1.4.7-1.9 1.2l-.6-.9c.6-.6 1.4-1 2.3-1.3.9-.3 1.8-.5 2.8-.5 1.5.1 2.7.5 3.6 1.3zm-1.6 9.8c.7-.5 1.3-1.2 1.6-2.1v-2.3h-4.3c-1.2 0-2.1.2-2.7.7-.6.4-.8 1.1-.8 1.8 0 .8.3 1.5.9 1.9.6.5 1.5.7 2.6.7s1.9-.2 2.7-.7zM278.3 334.441c-.2-.2-.3-.4-.3-.7 0-.3.1-.5.3-.7.2-.2.4-.3.7-.3.3 0 .5.1.7.3.2.2.3.4.3.7 0 .3-.1.5-.3.7-.2.2-.4.3-.7.3-.3 0-.5-.1-.7-.3zm.1 3.4h1.2v12.5h-1.2v-12.5zM294.5 339.041c.9.9 1.4 2.2 1.4 3.9v7.3h-1.2v-7.2c0-1.4-.4-2.5-1.1-3.2-.7-.7-1.7-1.1-3-1.1-1.5 0-2.6.4-3.5 1.3-.8.9-1.3 2.1-1.3 3.6v6.7h-1.2v-12.5h1.2v2.7c.4-.9 1.1-1.6 1.9-2.1.9-.5 1.9-.7 3-.7 1.6 0 2.9.4 3.8 1.3zM300.7 334.441c-.2-.2-.3-.4-.3-.7 0-.3.1-.5.3-.7.2-.2.4-.3.7-.3.3 0 .5.1.7.3.2.2.3.4.3.7 0 .3-.1.5-.3.7-.2.2-.4.3-.7.3-.3 0-.5-.1-.7-.3zm.1 3.4h1.2v12.5h-1.2v-12.5zM316.9 339.041c.9.9 1.4 2.2 1.4 3.9v7.3h-1.2v-7.2c0-1.4-.4-2.5-1.1-3.2-.7-.7-1.7-1.1-3-1.1-1.5 0-2.6.4-3.5 1.3-.8.9-1.3 2.1-1.3 3.6v6.7H307v-12.5h1.2v2.7c.4-.9 1.1-1.6 1.9-2.1.9-.5 1.9-.7 3-.7 1.6 0 2.9.4 3.8 1.3zM334.5 337.841v11.2c0 2.1-.5 3.6-1.5 4.6-1 1-2.5 1.5-4.6 1.5-1.2 0-2.2-.2-3.3-.5-1-.4-1.8-.8-2.5-1.5l.6-.9c.6.6 1.4 1 2.3 1.3.9.3 1.8.5 2.8.5 1.7 0 2.9-.4 3.7-1.2.8-.8 1.2-2 1.2-3.7v-2.1c-.5.9-1.2 1.6-2.1 2.1-.9.5-1.9.7-3.1.7-1.2 0-2.2-.3-3.2-.8s-1.7-1.2-2.2-2.2c-.5-.9-.8-2-.8-3.1s.3-2.2.8-3.1c.5-.9 1.3-1.6 2.2-2.2 1-.5 2-.8 3.2-.8 1.2 0 2.2.3 3.1.8.9.5 1.6 1.2 2.1 2.2v-2.8h1.3zm-3.7 10.3c.8-.4 1.4-1 1.8-1.8.4-.8.7-1.6.7-2.6s-.2-1.8-.7-2.6c-.4-.8-1.1-1.3-1.8-1.8-.8-.4-1.7-.6-2.6-.6-.9 0-1.9.2-2.6.6-.8.4-1.4 1-1.8 1.8-.4.8-.7 1.6-.7 2.6s.2 1.8.7 2.6c.4.8 1 1.4 1.8 1.8.8.4 1.7.6 2.6.6.9 0 1.8-.1 2.6-.6zM346 349.941c-.9-.3-1.6-.7-2.1-1.2l.6-1c.5.4 1.2.8 2 1.1.8.3 1.7.4 2.5.4 1.3 0 2.2-.2 2.8-.6.6-.4.9-1 .9-1.7 0-.5-.2-.9-.5-1.2-.3-.3-.7-.5-1.2-.7-.5-.1-1.1-.3-2-.5-1-.2-1.8-.4-2.4-.6-.6-.2-1.1-.5-1.6-1-.4-.5-.6-1.1-.6-1.9 0-1 .4-1.8 1.2-2.5.8-.6 2-1 3.5-1 .8 0 1.6.1 2.4.3.8.2 1.4.5 1.9.9l-.6 1c-.5-.4-1.1-.6-1.8-.8-.7-.2-1.3-.3-2-.3-1.2 0-2 .2-2.6.6-.6.4-.9 1-.9 1.7 0 .6.2 1 .5 1.3.3.3.7.5 1.2.7.5.2 1.2.3 2.1.5 1 .2 1.8.4 2.4.6.6.2 1.1.5 1.5 1 .4.4.6 1.1.6 1.8 0 1-.4 1.9-1.3 2.5-.9.6-2.1.9-3.6.9-1 .2-1.9 0-2.9-.3zM363.4 349.541c-.3.3-.7.5-1.1.7-.5.2-.9.2-1.4.2-1.1 0-1.9-.3-2.5-.9-.6-.6-.9-1.4-.9-2.5v-8.2h-2.3v-1h2.3v-2.7h1.2v2.7h4v1h-4v8.1c0 .8.2 1.4.6 1.9.4.4 1 .6 1.7.6.8 0 1.4-.2 1.9-.7l.5.8zM377.7 337.841v12.5h-1.2v-2.7c-.4.9-1 1.6-1.8 2.1s-1.8.7-2.9.7c-1.6 0-2.9-.5-3.8-1.4-.9-.9-1.4-2.2-1.4-3.9v-7.3h1.2v7.2c0 1.4.4 2.5 1.1 3.2.7.7 1.7 1.1 3 1.1 1.4 0 2.5-.4 3.3-1.3.8-.9 1.2-2.1 1.2-3.6v-6.7h1.3v.1zM394 332.541v17.8h-1.2v-3c-.5 1-1.2 1.7-2.1 2.3-.9.5-1.9.8-3 .8-1.2 0-2.2-.3-3.2-.8-.9-.5-1.7-1.3-2.2-2.3-.5-1-.8-2.1-.8-3.3 0-1.2.3-2.3.8-3.3s1.3-1.7 2.2-2.3c.9-.5 2-.8 3.2-.8 1.1 0 2.1.3 3 .8.9.5 1.6 1.3 2.1 2.2v-8.2h1.2v.1zm-3.7 16.1c.8-.4 1.4-1.1 1.8-1.9.4-.8.7-1.7.7-2.7 0-1-.2-1.9-.7-2.7-.4-.8-1-1.4-1.8-1.9-.8-.4-1.6-.7-2.6-.7s-1.8.2-2.6.7c-.8.4-1.4 1.1-1.8 1.9-.4.8-.7 1.7-.7 2.7 0 1 .2 1.9.7 2.7.4.8 1 1.4 1.8 1.9.8.4 1.6.7 2.6.7s1.8-.2 2.6-.7zM398.9 334.441c-.2-.2-.3-.4-.3-.7 0-.3.1-.5.3-.7.2-.2.4-.3.7-.3.3 0 .5.1.7.3.2.2.3.4.3.7 0 .3-.1.5-.3.7-.2.2-.4.3-.7.3-.2 0-.5-.1-.7-.3zm.1 3.4h1.2v12.5H399v-12.5zM407 349.641c-1-.5-1.7-1.3-2.2-2.3-.5-1-.8-2.1-.8-3.3 0-1.2.3-2.3.8-3.3s1.3-1.7 2.2-2.3c1-.5 2-.8 3.2-.8 1.2 0 2.3.3 3.2.8.9.5 1.7 1.3 2.2 2.3.5 1 .8 2.1.8 3.3 0 1.2-.3 2.3-.8 3.3s-1.3 1.7-2.2 2.3c-.9.6-2 .8-3.2.8-1.2 0-2.3-.3-3.2-.8zm5.8-1c.8-.4 1.4-1.1 1.8-1.9.4-.8.7-1.7.7-2.7 0-1-.2-1.9-.7-2.7-.4-.8-1-1.4-1.8-1.9-.8-.4-1.6-.7-2.6-.7s-1.8.2-2.6.7c-.8.4-1.4 1.1-1.8 1.9-.4.8-.7 1.7-.7 2.7 0 1 .2 1.9.7 2.7.4.8 1 1.4 1.8 1.9.8.4 1.6.7 2.6.7s1.8-.2 2.6-.7z" fill="#000"/></g></g></svg>
